<svg width="31" height="30" viewBox="0 0 31 30" fill="none" xmlns="http://www.w3.org/2000/svg">
<path d="M23.3559 21.25C25.099 23.7356 25.9329 25.0594 25.4362 26.1249C25.3864 26.2318 25.328 26.3349 25.2617 26.4334C24.5436 27.5 22.6875 27.5 18.9754 27.5L12.1809 27.5C8.46876 27.5 6.61268 27.5 5.89451 26.4334C5.82818 26.3349 5.76986 26.2318 5.72006 26.1249C5.22336 25.0594 6.0572 23.7356 7.80035 21.25" stroke="#5565AF" stroke-width="1.875" stroke-linecap="round" stroke-linejoin="round"/>
<path d="M16.8999 20.367C16.4783 20.773 15.9148 21 15.3284 21C14.7419 21 14.1784 20.773 13.7568 20.367C9.896 16.626 4.72211 12.4469 7.24526 6.37966C8.6095 3.09915 11.8843 1 15.3284 1C18.7724 1 22.0471 3.09916 23.4114 6.37966C25.9314 12.4392 20.7701 16.6389 16.8999 20.367Z" fill="#5565AF" stroke="#5565AF" stroke-width="1.875"/>
<path d="M18.7031 10.25C18.7031 11.9759 17.304 13.375 15.5781 13.375C13.8522 13.375 12.4531 11.9759 12.4531 10.25C12.4531 8.52411 13.8522 7.125 15.5781 7.125C17.304 7.125 18.7031 8.52411 18.7031 10.25Z" fill="#20201F"/>
</svg>
