<svg width="23" height="24" viewBox="0 0 23 24" fill="none" xmlns="http://www.w3.org/2000/svg">
<path d="M2.82812 16.6904L7.82812 16.6904C8.24186 16.6904 8.63908 16.8539 8.93164 17.1465C9.2242 17.439 9.3877 17.8363 9.3877 18.25L9.3877 20.75C9.3877 21.1637 9.2242 21.561 8.93164 21.8535C8.63908 22.1461 8.24186 22.3096 7.82812 22.3096L2.82812 22.3096C2.41439 22.3096 2.01717 22.1461 1.72461 21.8535C1.43205 21.561 1.26855 21.1637 1.26855 20.75L1.26855 18.25C1.26855 17.8363 1.43205 17.439 1.72461 17.1465C2.01717 16.8539 2.41439 16.6904 2.82812 16.6904ZM15.3281 11.6904L20.3281 11.6904C20.7419 11.6904 21.1391 11.8539 21.4316 12.1465C21.7242 12.439 21.8877 12.8363 21.8877 13.25L21.8877 20.75C21.8877 21.1637 21.7242 21.561 21.4316 21.8535C21.1391 22.1461 20.7419 22.3096 20.3281 22.3096L15.3281 22.3096C14.9144 22.3096 14.5172 22.1461 14.2246 21.8535C13.9321 21.561 13.7686 21.1637 13.7686 20.75L13.7686 13.25C13.7686 12.8363 13.9321 12.439 14.2246 12.1465C14.5172 11.8539 14.9144 11.6904 15.3281 11.6904ZM2.82812 1.69043L7.82812 1.69043C8.24186 1.69043 8.63908 1.85393 8.93164 2.14648C9.2242 2.43904 9.3877 2.83626 9.3877 3.25L9.3877 10.75C9.3877 11.1637 9.2242 11.561 8.93164 11.8535C8.63908 12.1461 8.24186 12.3096 7.82812 12.3096L2.82812 12.3096C2.41439 12.3096 2.01717 12.1461 1.72461 11.8535C1.43205 11.561 1.26855 11.1637 1.26855 10.75L1.26855 3.25C1.26855 2.83626 1.43205 2.43904 1.72461 2.14648C2.01717 1.85393 2.41439 1.69043 2.82812 1.69043ZM15.3281 1.69043L20.3281 1.69043C20.7419 1.69043 21.1391 1.85393 21.4316 2.14648C21.7242 2.43904 21.8877 2.83626 21.8877 3.25L21.8877 5.75C21.8877 6.16374 21.7242 6.56096 21.4316 6.85352C21.1391 7.14607 20.7419 7.30957 20.3281 7.30957L15.3281 7.30957C14.9144 7.30957 14.5172 7.14607 14.2246 6.85352C13.9321 6.56096 13.7686 6.16374 13.7686 5.75L13.7686 3.25C13.7686 2.83626 13.9321 2.43904 14.2246 2.14648C14.5172 1.85393 14.9144 1.69043 15.3281 1.69043Z" stroke="white" stroke-width="1.88"/>
</svg>
