<svg width="51" height="34" viewBox="0 0 51 34" fill="none" xmlns="http://www.w3.org/2000/svg">
<path d="M20.5781 22L25.5781 22M20.5781 15.75L30.5781 15.75" stroke="#E2E2E2" stroke-width="1.875" stroke-linecap="round"/>
<path d="M19.9531 6.375C18.0084 6.43334 16.8489 6.6498 16.0466 7.45284C14.9482 8.55221 14.9482 10.3216 14.9482 13.8605L14.9482 21.993C14.9482 25.5319 14.9482 27.3013 16.0466 28.4006C17.1449 29.5 18.9127 29.5 22.4482 29.5L28.6983 29.5C32.2338 29.5 34.0015 29.5 35.0999 28.4006C36.1983 27.3013 36.1983 25.5319 36.1983 21.993L36.1983 13.8605C36.1983 10.3216 36.1983 8.55221 35.0999 7.45285C34.2976 6.6498 33.1381 6.43334 31.1934 6.375" stroke="#E2E2E2" stroke-width="1.875"/>
<path d="M19.9482 6.6875C19.9482 5.47938 20.9276 4.5 22.1357 4.5L29.0108 4.5C30.2189 4.5 31.1983 5.47937 31.1983 6.6875C31.1983 7.89562 30.2189 8.875 29.0108 8.875L22.1357 8.875C20.9276 8.875 19.9482 7.89562 19.9482 6.6875Z" stroke="#E2E2E2" stroke-width="1.875" stroke-linejoin="round"/>
</svg>
