<svg width="51" height="34" viewBox="0 0 51 34" fill="none" xmlns="http://www.w3.org/2000/svg">
<path d="M31.8281 4.5L31.8281 7M25.5781 4.5L25.5781 7M19.3281 4.5L19.3281 7" stroke="white" stroke-width="1.88" stroke-linecap="round" stroke-linejoin="round"/>
<path d="M14.9531 22L14.9531 13.25C14.9531 9.71446 14.9531 7.9467 16.0515 6.84835C17.1498 5.75 18.9176 5.75 22.4531 5.75L28.7031 5.75C32.2386 5.75 34.0064 5.75 35.1047 6.84835C36.2031 7.9467 36.2031 9.71446 36.2031 13.25L36.2031 17C36.2031 22.8925 36.2031 25.8389 34.3725 27.6694C32.542 29.5 29.5956 29.5 23.7031 29.5L22.4531 29.5C18.9176 29.5 17.1498 29.5 16.0515 28.4016C14.9531 27.3032 14.9531 25.5355 14.9531 22Z" stroke="white" stroke-width="1.88"/>
<path d="M20.5781 20.75L25.5781 20.75M20.5781 14.5L30.5781 14.5" stroke="white" stroke-width="1.88" stroke-linecap="round"/>
<path d="M36.2031 20.125C36.2031 21.8509 34.804 23.25 33.0781 23.25C32.454 23.25 31.7181 23.1406 31.1113 23.3033C30.572 23.4478 30.1509 23.8689 30.0064 24.4081C29.8437 25.015 29.9531 25.7509 29.9531 26.375C29.9531 28.1009 28.554 29.5 26.8281 29.5" stroke="white" stroke-width="1.88" stroke-linecap="round" stroke-linejoin="round"/>
</svg>
