<svg width="51" height="34" viewBox="0 0 51 34" fill="none" xmlns="http://www.w3.org/2000/svg">
<path d="M20.4281 19.9092C20.788 19.9091 21.1562 20.0601 21.4525 20.3672C21.7494 20.6748 21.9462 21.1146 21.9818 21.6055L21.9877 21.7637L21.9877 25.9541C21.9878 26.4514 21.819 26.9157 21.5375 27.2549C21.2614 27.5873 20.9052 27.7694 20.5492 27.8027L20.4193 27.8076L16.6781 27.8076L16.5424 27.8008C16.2269 27.7677 15.9129 27.6183 15.6537 27.3496C15.3569 27.0418 15.1589 26.6023 15.1234 26.1113L15.1185 25.9541L15.1185 21.7627C15.1185 21.2655 15.2873 20.802 15.5687 20.4629C15.8446 20.1306 16.2002 19.9477 16.556 19.9141L16.7133 19.9092L20.4281 19.9092ZM31.6771 25.4971L31.7142 25.501C31.7545 25.5094 31.8036 25.533 31.8529 25.585C31.9215 25.6574 31.9781 25.776 31.9857 25.9219C31.9933 26.0677 31.9495 26.1984 31.8832 26.2871C31.8226 26.3679 31.7563 26.3975 31.7094 26.4062L31.6449 26.4111L26.6791 26.4111C26.6341 26.411 26.569 26.3925 26.5033 26.3232C26.4347 26.2508 26.3781 26.1322 26.3705 25.9863C26.3629 25.8406 26.4067 25.7098 26.473 25.6211C26.5332 25.5407 26.5989 25.5099 26.6459 25.501L26.7113 25.4971L31.6771 25.4971ZM26.6781 19.9092L36.6781 19.9092C36.7245 19.9092 36.7934 19.9296 36.8617 20.0059C36.9329 20.0856 36.9876 20.2137 36.9877 20.3662C36.9877 20.519 36.933 20.6478 36.8617 20.7275C36.7934 20.8038 36.7245 20.8232 36.6781 20.8232L26.6781 20.8232C26.6317 20.8232 26.5628 20.8038 26.4945 20.7275C26.4232 20.6478 26.3685 20.519 26.3685 20.3662C26.3686 20.2137 26.4233 20.0856 26.4945 20.0059C26.5628 19.9296 26.6317 19.9092 26.6781 19.9092ZM16.6781 5.94043L20.4281 5.94043C20.806 5.94043 21.1928 6.10704 21.4955 6.44531C21.8012 6.78701 21.9877 7.2707 21.9877 7.79395L21.9877 11.9844C21.9877 12.5075 21.8011 12.9913 21.4955 13.333C21.1928 13.6713 20.806 13.8389 20.4281 13.8389L16.6781 13.8389C16.3002 13.8389 15.9134 13.6713 15.6107 13.333C15.3051 12.9913 15.1185 12.5075 15.1185 11.9844L15.1185 7.79395C15.1185 7.27071 15.305 6.78701 15.6107 6.44531C15.9134 6.10704 16.3002 5.94043 16.6781 5.94043ZM31.6771 11.5273L31.7142 11.5322C31.7545 11.5407 31.8037 11.5633 31.8529 11.6152C31.9215 11.6876 31.978 11.8062 31.9857 11.9521C31.9934 12.0979 31.9495 12.2286 31.8832 12.3174C31.8251 12.395 31.7617 12.4263 31.7152 12.4365L31.6449 12.4414L26.6791 12.4414C26.6341 12.4413 26.569 12.4228 26.5033 12.3535C26.4349 12.2811 26.3782 12.1631 26.3705 12.0176C26.3628 11.8716 26.4066 11.7401 26.473 11.6514C26.5333 11.571 26.5989 11.5402 26.6459 11.5312L26.7113 11.5273L31.6771 11.5273ZM36.6771 5.94043L36.7142 5.94434C36.7545 5.95281 36.8037 5.97545 36.8529 6.02734C36.9215 6.09972 36.978 6.21837 36.9857 6.36426C36.9934 6.51028 36.9497 6.64171 36.8832 6.73047C36.8226 6.81126 36.7563 6.84086 36.7094 6.84961L36.6595 6.85352L26.6791 6.85352C26.6341 6.85341 26.569 6.83491 26.5033 6.76562C26.4349 6.69322 26.3782 6.57527 26.3705 6.42969C26.3628 6.28367 26.4066 6.15223 26.473 6.06348C26.5332 5.98311 26.599 5.95231 26.6459 5.94336L26.6967 5.94043L36.6771 5.94043Z" stroke="white" stroke-width="1.88"/>
</svg>
