<svg width="26" height="22" viewBox="0 0 26 22" fill="none" xmlns="http://www.w3.org/2000/svg">
<path d="M9.32812 8.8125H24.3281C24.4656 8.8125 24.5781 8.7 24.5781 8.5625V6.8125C24.5781 6.675 24.4656 6.5625 24.3281 6.5625H9.32812C9.19063 6.5625 9.07812 6.675 9.07812 6.8125V8.5625C9.07812 8.7 9.19063 8.8125 9.32812 8.8125ZM9.07812 15.1875C9.07812 15.325 9.19063 15.4375 9.32812 15.4375H24.3281C24.4656 15.4375 24.5781 15.325 24.5781 15.1875V13.4375C24.5781 13.3 24.4656 13.1875 24.3281 13.1875H9.32812C9.19063 13.1875 9.07812 13.3 9.07812 13.4375V15.1875ZM24.8281 0H0.328125C0.190625 0 0.078125 0.1125 0.078125 0.25V2C0.078125 2.1375 0.190625 2.25 0.328125 2.25H24.8281C24.9656 2.25 25.0781 2.1375 25.0781 2V0.25C25.0781 0.1125 24.9656 0 24.8281 0ZM24.8281 19.75H0.328125C0.190625 19.75 0.078125 19.8625 0.078125 20V21.75C0.078125 21.8875 0.190625 22 0.328125 22H24.8281C24.9656 22 25.0781 21.8875 25.0781 21.75V20C25.0781 19.8625 24.9656 19.75 24.8281 19.75ZM1.02812 15.0656L5.9125 11.2188C5.94539 11.1929 5.97197 11.1599 5.99025 11.1223C6.00854 11.0847 6.01803 11.0434 6.01803 11.0016C6.01803 10.9597 6.00854 10.9184 5.99025 10.8808C5.97197 10.8432 5.94539 10.8102 5.9125 10.7844L1.02812 6.93437C0.846875 6.79062 0.578125 6.91875 0.578125 7.15V14.8469C0.578108 14.8991 0.592779 14.9502 0.62046 14.9945C0.64814 15.0387 0.687714 15.0743 0.734656 15.0971C0.781598 15.1199 0.834013 15.1291 0.88591 15.1235C0.937807 15.1179 0.98709 15.0979 1.02812 15.0656Z" fill="#E2E2E2"/>
</svg>
