<svg width="40" height="40" viewBox="0 0 40 40" fill="none" xmlns="http://www.w3.org/2000/svg">
<path d="M5 11.6667H10" stroke="#E2E2E2" stroke-width="2.5" stroke-linecap="round" stroke-linejoin="round"/>
<path opacity="0.4" d="M5 28.3333H15" stroke="#E2E2E2" stroke-width="2.5" stroke-linecap="round" stroke-linejoin="round"/>
<path d="M30 28.3333H35" stroke="#E2E2E2" stroke-width="2.5" stroke-linecap="round" stroke-linejoin="round"/>
<path opacity="0.4" d="M25 11.6667H35" stroke="#E2E2E2" stroke-width="2.5" stroke-linecap="round" stroke-linejoin="round"/>
<path d="M10 11.6667C10 10.1136 10 9.33705 10.2537 8.72446C10.592 7.90771 11.241 7.2588 12.0577 6.92048C12.6703 6.66675 13.4469 6.66675 15 6.66675C16.5531 6.66675 17.3297 6.66675 17.9423 6.92048C18.759 7.2588 19.408 7.90771 19.7463 8.72446C20 9.33705 20 10.1136 20 11.6667C20 13.2199 20 13.9964 19.7463 14.609C19.408 15.4258 18.759 16.0747 17.9423 16.413C17.3297 16.6667 16.5531 16.6667 15 16.6667C13.4469 16.6667 12.6703 16.6667 12.0577 16.413C11.241 16.0747 10.592 15.4258 10.2537 14.609C10 13.9964 10 13.2199 10 11.6667Z" stroke="#E2E2E2" stroke-width="2.5"/>
<path d="M20 28.3333C20 26.7801 20 26.0036 20.2537 25.3909C20.592 24.5743 21.241 23.9253 22.0577 23.5869C22.6703 23.3333 23.4468 23.3333 25 23.3333C26.5532 23.3333 27.3297 23.3333 27.9423 23.5869C28.759 23.9253 29.408 24.5743 29.7463 25.3909C30 26.0036 30 26.7801 30 28.3333C30 29.8864 30 30.6629 29.7463 31.2756C29.408 32.0923 28.759 32.7413 27.9423 33.0796C27.3297 33.3333 26.5532 33.3333 25 33.3333C23.4468 33.3333 22.6703 33.3333 22.0577 33.0796C21.241 32.7413 20.592 32.0923 20.2537 31.2756C20 30.6629 20 29.8864 20 28.3333Z" fill="#E2E2E2" stroke="#E2E2E2" stroke-width="2.5"/>
</svg>
