<svg width="20" height="20" viewBox="0 0 20 20" fill="none" xmlns="http://www.w3.org/2000/svg">
<path d="M12.0833 7.50008C12.0833 8.65066 11.1506 9.58341 9.99999 9.58341C8.84941 9.58341 7.91666 8.65066 7.91666 7.50008C7.91666 6.34949 8.84941 5.41675 9.99999 5.41675C11.1506 5.41675 12.0833 6.34949 12.0833 7.50008Z" stroke="white" stroke-width="1.5"/>
<path d="M11.0478 14.5781C10.7667 14.8487 10.3911 15.0001 10.0002 15.0001C9.60916 15.0001 9.23349 14.8487 8.95241 14.5781C6.37857 12.0841 2.92931 9.298 4.61141 5.25319C5.52091 3.06618 7.70411 1.66675 10.0002 1.66675C12.2962 1.66675 14.4793 3.06619 15.3888 5.25319C17.0688 9.29291 13.628 12.0927 11.0478 14.5781Z" stroke="white" stroke-width="1.5"/>
<path d="M15 16.6667C15 17.5872 12.7614 18.3334 10 18.3334C7.23857 18.3334 5 17.5872 5 16.6667" stroke="white" stroke-width="1.5" stroke-linecap="round"/>
</svg>
