<svg width="20" height="20" viewBox="0 0 20 20" fill="none" xmlns="http://www.w3.org/2000/svg">
<path d="M9.16666 18.3334L7.93463 16.3718C7.0765 15.0055 6.64742 14.3223 5.9671 14.1995C4.85959 13.9995 3.71494 14.7538 2.91666 15.4242" stroke="white" stroke-width="1.5"/>
<path d="M2.91666 7.5V13.3566C2.91666 14.3589 2.91666 14.8601 3.16557 15.2628C3.41449 15.6656 3.86275 15.8898 4.75928 16.338L8.04617 17.9814C8.74682 18.3318 8.75357 18.3333 9.53691 18.3333H12.0833C14.4403 18.3333 15.6188 18.3333 16.3511 17.6011C17.0833 16.8688 17.0833 15.6903 17.0833 13.3333V7.5C17.0833 5.14298 17.0833 3.96447 16.3511 3.23223C15.6188 2.5 14.4403 2.5 12.0833 2.5H7.91666C5.55963 2.5 4.38112 2.5 3.64889 3.23223C2.91666 3.96447 2.91666 5.14298 2.91666 7.5Z" stroke="white" stroke-width="1.5"/>
<path d="M9.99999 7.5H6.66666M13.3333 11.6667H6.66666" stroke="white" stroke-width="1.5" stroke-linecap="round" stroke-linejoin="round"/>
<path d="M14.1667 1.66675V3.33341M10 1.66675V3.33341M5.83334 1.66675V3.33341" stroke="white" stroke-width="1.5" stroke-linecap="round" stroke-linejoin="round"/>
</svg>
