<svg width="25" height="25" viewBox="0 0 25 25" fill="none" xmlns="http://www.w3.org/2000/svg">
<g clip-path="url(#clip0_302_1662)">
<rect x="0.578125" y="0.5" width="24" height="24" rx="12" fill="#188706"/>
<path d="M12.5815 6.5V12.4991M16.8215 9.28359C17.6604 10.0388 18.2316 11.0008 18.463 12.0481C18.6943 13.0954 18.5754 14.1809 18.1212 15.1674C17.667 16.1539 16.898 16.997 15.9113 17.5902C14.9247 18.1834 13.7647 18.5 12.5781 18.5C11.3915 18.5 10.2316 18.1834 9.24491 17.5902C8.25826 16.997 7.48922 16.1539 7.03504 15.1674C6.58085 14.1809 6.46192 13.0954 6.69327 12.0481C6.92463 11.0008 7.49587 10.0388 8.33479 9.28359" stroke="white" stroke-width="1.8" stroke-linecap="round" stroke-linejoin="round"/>
</g>
<defs>
<clipPath id="clip0_302_1662">
<rect width="24" height="24" fill="white" transform="translate(0.578125 0.5)"/>
</clipPath>
</defs>
</svg>
