<svg width="24" height="24" viewBox="0 0 24 24" fill="none" xmlns="http://www.w3.org/2000/svg">
<path d="M11.5 1.84961C16.8194 1.84961 21.1504 6.18057 21.1504 11.5C21.1504 16.8194 16.8194 21.1504 11.5 21.1504C6.18057 21.1504 1.84961 16.8194 1.84961 11.5C1.84961 6.18057 6.18057 1.84961 11.5 1.84961ZM11.5 3.54004C7.10637 3.54004 3.54004 7.11541 3.54004 11.5C3.54004 15.8846 7.10637 19.46 11.5 19.46C15.8936 19.46 19.46 15.8846 19.46 11.5C19.46 7.11541 15.8936 3.54004 11.5 3.54004Z" fill="#E2E2E2" stroke="#E2E2E2" stroke-width="0.3"/>
<path d="M19.3638 19.3638C19.7124 19.0152 20.2877 19.0152 20.6363 19.3638L22.6363 21.3638C22.9848 21.7124 22.9849 22.2877 22.6363 22.6362C22.4567 22.8158 22.2272 22.8999 21.9996 22.8999C21.7721 22.8998 21.5433 22.8157 21.3638 22.6362L19.3638 20.6362C19.0153 20.2877 19.0153 19.7123 19.3638 19.3638Z" fill="#E2E2E2" stroke="#E2E2E2" stroke-width="0.3"/>
</svg>
