<svg width="20" height="20" viewBox="0 0 20 20" fill="none" xmlns="http://www.w3.org/2000/svg">
<path d="M9.99999 18.3334C14.6023 18.3334 18.3333 14.6024 18.3333 10.0001C18.3333 5.39771 14.6023 1.66675 9.99999 1.66675C5.39761 1.66675 1.66666 5.39771 1.66666 10.0001C1.66666 14.6024 5.39761 18.3334 9.99999 18.3334Z" stroke="white" stroke-width="1.25"/>
<path d="M10.0065 8.75684C9.31617 8.75684 8.7565 9.3165 8.7565 10.0068C8.7565 10.6972 9.31617 11.2568 10.0065 11.2568C10.6968 11.2568 11.2565 10.6972 11.2565 10.0068C11.2565 9.3165 10.6968 8.75684 10.0065 8.75684ZM10.0065 8.75684V5.83252M12.5123 12.5165L10.8884 10.8927" stroke="white" stroke-width="1.25" stroke-linecap="round" stroke-linejoin="round"/>
</svg>
