<svg width="210" height="19" viewBox="0 0 210 19" fill="none" xmlns="http://www.w3.org/2000/svg">
<path d="M0 18.26H18V0.26H0V18.26ZM31.0455 6.12793H25.9039V9.42383H30.2017C30.6002 9.42383 30.8961 9.51465 31.0894 9.69629C31.2886 9.87207 31.3882 10.1094 31.3882 10.4082C31.3882 10.707 31.2886 10.9443 31.0894 11.1201C30.8902 11.2959 30.5943 11.3838 30.2017 11.3838H25.9039V15.6289C25.9039 16.168 25.7808 16.5693 25.5347 16.833C25.2945 17.0908 24.9839 17.2197 24.6031 17.2197C24.2164 17.2197 23.9 17.0879 23.6539 16.8242C23.4136 16.5605 23.2935 16.1621 23.2935 15.6289V5.71484C23.2935 5.33984 23.3492 5.03516 23.4605 4.80078C23.5718 4.56055 23.7447 4.3877 23.9791 4.28223C24.2193 4.1709 24.524 4.11523 24.8931 4.11523H31.0455C31.4615 4.11523 31.7691 4.20898 31.9683 4.39648C32.1734 4.57813 32.2759 4.81836 32.2759 5.11719C32.2759 5.42188 32.1734 5.66797 31.9683 5.85547C31.7691 6.03711 31.4615 6.12793 31.0455 6.12793ZM35.4764 13.7568V15.7607C35.4764 16.2471 35.3621 16.6133 35.1336 16.8594C34.9051 17.0996 34.6151 17.2197 34.2635 17.2197C33.9178 17.2197 33.6336 17.0967 33.411 16.8506C33.1883 16.6045 33.077 16.2412 33.077 15.7607V9.08105C33.077 8.00293 33.4666 7.46387 34.2459 7.46387C34.6444 7.46387 34.9315 7.58984 35.1073 7.8418C35.283 8.09375 35.3797 8.46582 35.3973 8.95801C35.6844 8.46582 35.9774 8.09375 36.2762 7.8418C36.5809 7.58984 36.9852 7.46387 37.4891 7.46387C37.993 7.46387 38.4823 7.58984 38.9569 7.8418C39.4315 8.09375 39.6688 8.42773 39.6688 8.84375C39.6688 9.13672 39.5662 9.37988 39.3612 9.57324C39.162 9.76074 38.9452 9.85449 38.7108 9.85449C38.6229 9.85449 38.409 9.80176 38.0692 9.69629C37.7352 9.58496 37.4393 9.5293 37.1815 9.5293C36.8299 9.5293 36.5428 9.62305 36.3202 9.81055C36.0975 9.99219 35.9246 10.2646 35.8016 10.6279C35.6786 10.9912 35.5936 11.4248 35.5467 11.9287C35.4998 12.4268 35.4764 13.0361 35.4764 13.7568ZM46.9474 12.9307H42.254C42.2599 13.4756 42.3683 13.9561 42.5792 14.3721C42.796 14.7881 43.0802 15.1016 43.4318 15.3125C43.7892 15.5234 44.1818 15.6289 44.6095 15.6289C44.8966 15.6289 45.1573 15.5967 45.3917 15.5322C45.632 15.4619 45.8634 15.3564 46.0861 15.2158C46.3087 15.0693 46.5138 14.9141 46.7013 14.75C46.8888 14.5859 47.132 14.3633 47.4308 14.082C47.5538 13.9766 47.7296 13.9238 47.9581 13.9238C48.2042 13.9238 48.4034 13.9912 48.5558 14.126C48.7081 14.2607 48.7843 14.4512 48.7843 14.6973C48.7843 14.9141 48.6993 15.1689 48.5294 15.4619C48.3595 15.749 48.1017 16.0273 47.756 16.2969C47.4161 16.5605 46.9855 16.7803 46.464 16.9561C45.9484 17.1318 45.3536 17.2197 44.6798 17.2197C43.1388 17.2197 41.9405 16.7803 41.0851 15.9014C40.2296 15.0225 39.8019 13.8301 39.8019 12.3242C39.8019 11.6152 39.9073 10.959 40.1183 10.3555C40.3292 9.74609 40.6368 9.22461 41.0411 8.79102C41.4454 8.35742 41.9435 8.02637 42.5353 7.79785C43.1271 7.56348 43.7833 7.44629 44.504 7.44629C45.4415 7.44629 46.2443 7.64551 46.9122 8.04395C47.5861 8.43652 48.09 8.94629 48.4239 9.57324C48.7579 10.2002 48.9249 10.8389 48.9249 11.4893C48.9249 12.0928 48.7521 12.4854 48.4064 12.667C48.0607 12.8428 47.5743 12.9307 46.9474 12.9307ZM42.254 11.5684H46.6046C46.546 10.748 46.3234 10.1357 45.9366 9.73145C45.5558 9.32129 45.0519 9.11621 44.4249 9.11621C43.8273 9.11621 43.3351 9.32422 42.9484 9.74023C42.5675 10.1504 42.3361 10.7598 42.254 11.5684ZM57.3725 12.9307H52.6791C52.685 13.4756 52.7934 13.9561 53.0043 14.3721C53.2211 14.7881 53.5053 15.1016 53.8568 15.3125C54.2143 15.5234 54.6068 15.6289 55.0346 15.6289C55.3217 15.6289 55.5824 15.5967 55.8168 15.5322C56.057 15.4619 56.2885 15.3564 56.5111 15.2158C56.7338 15.0693 56.9389 14.9141 57.1264 14.75C57.3139 14.5859 57.557 14.3633 57.8559 14.082C57.9789 13.9766 58.1547 13.9238 58.3832 13.9238C58.6293 13.9238 58.8285 13.9912 58.9809 14.126C59.1332 14.2607 59.2094 14.4512 59.2094 14.6973C59.2094 14.9141 59.1244 15.1689 58.9545 15.4619C58.7846 15.749 58.5268 16.0273 58.1811 16.2969C57.8412 16.5605 57.4105 16.7803 56.8891 16.9561C56.3734 17.1318 55.7787 17.2197 55.1049 17.2197C53.5639 17.2197 52.3656 16.7803 51.5102 15.9014C50.6547 15.0225 50.227 13.8301 50.227 12.3242C50.227 11.6152 50.3324 10.959 50.5434 10.3555C50.7543 9.74609 51.0619 9.22461 51.4662 8.79102C51.8705 8.35742 52.3686 8.02637 52.9604 7.79785C53.5521 7.56348 54.2084 7.44629 54.9291 7.44629C55.8666 7.44629 56.6693 7.64551 57.3373 8.04395C58.0111 8.43652 58.515 8.94629 58.849 9.57324C59.183 10.2002 59.35 10.8389 59.35 11.4893C59.35 12.0928 59.1771 12.4854 58.8314 12.667C58.4857 12.8428 57.9994 12.9307 57.3725 12.9307ZM52.6791 11.5684H57.0297C56.9711 10.748 56.7484 10.1357 56.3617 9.73145C55.9809 9.32129 55.477 9.11621 54.85 9.11621C54.2523 9.11621 53.7602 9.32422 53.3734 9.74023C52.9926 10.1504 52.7611 10.7598 52.6791 11.5684ZM73.7314 15.541L73.1162 13.9238H67.8779L67.2627 15.5762C67.0224 16.2207 66.8173 16.6572 66.6474 16.8857C66.4775 17.1084 66.1992 17.2197 65.8125 17.2197C65.4843 17.2197 65.1943 17.0996 64.9423 16.8594C64.6904 16.6191 64.5644 16.3467 64.5644 16.042C64.5644 15.8662 64.5937 15.6846 64.6523 15.4971C64.7109 15.3096 64.8076 15.0488 64.9423 14.7148L68.2382 6.34766C68.332 6.10742 68.4433 5.82031 68.5722 5.48633C68.707 5.14648 68.8476 4.86523 68.9941 4.64258C69.1464 4.41992 69.3427 4.24121 69.583 4.10645C69.8291 3.96582 70.1308 3.89551 70.4882 3.89551C70.8515 3.89551 71.1533 3.96582 71.3935 4.10645C71.6396 4.24121 71.8359 4.41699 71.9824 4.63379C72.1347 4.85059 72.2607 5.08496 72.3603 5.33691C72.4658 5.58301 72.5976 5.91406 72.7558 6.33008L76.122 14.6445C76.3857 15.2773 76.5175 15.7373 76.5175 16.0244C76.5175 16.3232 76.3916 16.5986 76.1396 16.8506C75.8935 17.0967 75.5947 17.2197 75.2431 17.2197C75.038 17.2197 74.8623 17.1816 74.7158 17.1055C74.5693 17.0352 74.4463 16.9385 74.3466 16.8154C74.247 16.6865 74.1386 16.4932 74.0214 16.2354C73.9101 15.9717 73.8134 15.7402 73.7314 15.541ZM68.5634 11.9639H72.413L70.4707 6.64648L68.5634 11.9639ZM86.5998 14.249C86.5998 14.5479 86.509 14.8672 86.3274 15.207C86.1516 15.5469 85.8791 15.8721 85.51 16.1826C85.1467 16.4873 84.6868 16.7334 84.1301 16.9209C83.5735 17.1084 82.9465 17.2021 82.2493 17.2021C80.7668 17.2021 79.6096 16.7715 78.7776 15.9102C77.9455 15.043 77.5295 13.8828 77.5295 12.4297C77.5295 11.4453 77.72 10.5752 78.1008 9.81934C78.4817 9.06348 79.0325 8.48047 79.7532 8.07031C80.4739 7.6543 81.3352 7.44629 82.3372 7.44629C82.9582 7.44629 83.5266 7.53711 84.0422 7.71875C84.5637 7.90039 85.0032 8.13477 85.3606 8.42188C85.7239 8.70898 85.9993 9.0166 86.1868 9.34473C86.3801 9.66699 86.4768 9.96875 86.4768 10.25C86.4768 10.5371 86.3684 10.7803 86.1516 10.9795C85.9407 11.1787 85.6829 11.2783 85.3782 11.2783C85.1789 11.2783 85.012 11.2285 84.8772 11.1289C84.7483 11.0234 84.6018 10.8564 84.4377 10.6279C84.1448 10.1826 83.8372 9.84863 83.5149 9.62598C83.1985 9.40332 82.7942 9.29199 82.302 9.29199C81.593 9.29199 81.0217 9.57031 80.5881 10.127C80.1545 10.6777 79.9377 11.4336 79.9377 12.3945C79.9377 12.8457 79.9934 13.2617 80.1047 13.6426C80.2161 14.0176 80.3772 14.3398 80.5881 14.6094C80.7991 14.873 81.0539 15.0752 81.3528 15.2158C81.6516 15.3506 81.9797 15.418 82.3372 15.418C82.8176 15.418 83.2278 15.3066 83.5676 15.084C83.9133 14.8613 84.218 14.5215 84.4817 14.0645C84.6282 13.7949 84.7864 13.584 84.9563 13.4316C85.1262 13.2793 85.3342 13.2031 85.5803 13.2031C85.8733 13.2031 86.1164 13.3145 86.3098 13.5371C86.5032 13.7598 86.5998 13.9971 86.5998 14.249ZM97.0249 14.249C97.0249 14.5479 96.9341 14.8672 96.7525 15.207C96.5767 15.5469 96.3042 15.8721 95.9351 16.1826C95.5718 16.4873 95.1118 16.7334 94.5552 16.9209C93.9986 17.1084 93.3716 17.2021 92.6743 17.2021C91.1919 17.2021 90.0347 16.7715 89.2027 15.9102C88.3706 15.043 87.9546 13.8828 87.9546 12.4297C87.9546 11.4453 88.145 10.5752 88.5259 9.81934C88.9068 9.06348 89.4575 8.48047 90.1782 8.07031C90.8989 7.6543 91.7603 7.44629 92.7622 7.44629C93.3833 7.44629 93.9517 7.53711 94.4673 7.71875C94.9888 7.90039 95.4282 8.13477 95.7857 8.42188C96.1489 8.70898 96.4243 9.0166 96.6118 9.34473C96.8052 9.66699 96.9019 9.96875 96.9019 10.25C96.9019 10.5371 96.7935 10.7803 96.5767 10.9795C96.3657 11.1787 96.1079 11.2783 95.8032 11.2783C95.604 11.2783 95.437 11.2285 95.3023 11.1289C95.1734 11.0234 95.0269 10.8564 94.8628 10.6279C94.5698 10.1826 94.2622 9.84863 93.94 9.62598C93.6236 9.40332 93.2193 9.29199 92.7271 9.29199C92.0181 9.29199 91.4468 9.57031 91.0132 10.127C90.5796 10.6777 90.3628 11.4336 90.3628 12.3945C90.3628 12.8457 90.4185 13.2617 90.5298 13.6426C90.6411 14.0176 90.8023 14.3398 91.0132 14.6094C91.2241 14.873 91.479 15.0752 91.7779 15.2158C92.0767 15.3506 92.4048 15.418 92.7622 15.418C93.2427 15.418 93.6529 15.3066 93.9927 15.084C94.3384 14.8613 94.6431 14.5215 94.9068 14.0645C95.0532 13.7949 95.2114 13.584 95.3814 13.4316C95.5513 13.2793 95.7593 13.2031 96.0054 13.2031C96.2984 13.2031 96.5415 13.3145 96.7349 13.5371C96.9282 13.7598 97.0249 13.9971 97.0249 14.249ZM107.828 12.3418C107.828 13.0566 107.717 13.7158 107.494 14.3193C107.271 14.9229 106.949 15.4414 106.527 15.875C106.105 16.3086 105.601 16.6426 105.015 16.877C104.429 17.1055 103.77 17.2197 103.038 17.2197C102.311 17.2197 101.658 17.1025 101.078 16.8682C100.498 16.6338 99.9939 16.2998 99.5662 15.8662C99.1443 15.4268 98.8221 14.9111 98.5994 14.3193C98.3826 13.7217 98.2742 13.0625 98.2742 12.3418C98.2742 11.6152 98.3855 10.9502 98.6082 10.3467C98.8309 9.74316 99.1502 9.22754 99.5662 8.7998C99.9822 8.37207 100.486 8.04395 101.078 7.81543C101.67 7.58105 102.323 7.46387 103.038 7.46387C103.764 7.46387 104.424 7.58105 105.015 7.81543C105.607 8.0498 106.114 8.38379 106.536 8.81738C106.958 9.25098 107.277 9.7666 107.494 10.3643C107.717 10.9619 107.828 11.6211 107.828 12.3418ZM105.42 12.3418C105.42 11.3633 105.203 10.6016 104.769 10.0566C104.342 9.51172 103.764 9.23926 103.038 9.23926C102.569 9.23926 102.156 9.3623 101.799 9.6084C101.441 9.84863 101.166 10.2061 100.972 10.6807C100.779 11.1553 100.682 11.709 100.682 12.3418C100.682 12.9688 100.776 13.5166 100.964 13.9854C101.157 14.4541 101.429 14.8145 101.781 15.0664C102.138 15.3125 102.557 15.4355 103.038 15.4355C103.764 15.4355 104.342 15.1631 104.769 14.6182C105.203 14.0674 105.42 13.3086 105.42 12.3418ZM115.678 15.8662V15.5586C115.391 15.9219 115.089 16.2266 114.773 16.4727C114.456 16.7188 114.11 16.9004 113.735 17.0176C113.36 17.1406 112.933 17.2021 112.452 17.2021C111.872 17.2021 111.351 17.082 110.888 16.8418C110.431 16.6016 110.076 16.2705 109.824 15.8486C109.525 15.3389 109.376 14.6064 109.376 13.6514V8.89648C109.376 8.41602 109.484 8.05859 109.701 7.82422C109.918 7.58398 110.205 7.46387 110.563 7.46387C110.926 7.46387 111.219 7.58398 111.441 7.82422C111.664 8.06445 111.775 8.42188 111.775 8.89648V12.7373C111.775 13.2939 111.822 13.7627 111.916 14.1436C112.01 14.5186 112.177 14.8145 112.417 15.0312C112.663 15.2422 112.994 15.3477 113.41 15.3477C113.815 15.3477 114.195 15.2275 114.553 14.9873C114.91 14.7471 115.171 14.4336 115.335 14.0469C115.47 13.707 115.537 12.9629 115.537 11.8145V8.89648C115.537 8.42188 115.649 8.06445 115.871 7.82422C116.094 7.58398 116.384 7.46387 116.741 7.46387C117.099 7.46387 117.386 7.58398 117.603 7.82422C117.819 8.05859 117.928 8.41602 117.928 8.89648V15.8486C117.928 16.3057 117.822 16.6484 117.611 16.877C117.406 17.1055 117.14 17.2197 116.812 17.2197C116.483 17.2197 116.211 17.1025 115.994 16.8682C115.783 16.6279 115.678 16.2939 115.678 15.8662ZM122.227 8.79102V9.08105C122.649 8.52441 123.109 8.11719 123.607 7.85938C124.111 7.5957 124.688 7.46387 125.338 7.46387C125.971 7.46387 126.536 7.60156 127.035 7.87695C127.533 8.15234 127.905 8.54199 128.151 9.0459C128.309 9.33887 128.411 9.65527 128.458 9.99512C128.505 10.335 128.529 10.7686 128.529 11.2959V15.7607C128.529 16.2412 128.417 16.6045 128.195 16.8506C127.978 17.0967 127.694 17.2197 127.342 17.2197C126.985 17.2197 126.695 17.0938 126.472 16.8418C126.249 16.5898 126.138 16.2295 126.138 15.7607V11.7617C126.138 10.9707 126.027 10.3672 125.804 9.95117C125.587 9.5293 125.151 9.31836 124.494 9.31836C124.067 9.31836 123.677 9.44727 123.326 9.70508C122.974 9.95703 122.716 10.3057 122.552 10.751C122.435 11.1084 122.376 11.7764 122.376 12.7549V15.7607C122.376 16.2471 122.262 16.6133 122.034 16.8594C121.811 17.0996 121.521 17.2197 121.163 17.2197C120.818 17.2197 120.534 17.0938 120.311 16.8418C120.088 16.5898 119.977 16.2295 119.977 15.7607V8.82617C119.977 8.36914 120.077 8.0293 120.276 7.80664C120.475 7.57812 120.747 7.46387 121.093 7.46387C121.304 7.46387 121.494 7.51367 121.664 7.61328C121.834 7.71289 121.969 7.8623 122.069 8.06152C122.174 8.26074 122.227 8.50391 122.227 8.79102ZM130.78 7.6748H131.044V6.2334C131.044 5.84668 131.052 5.54492 131.07 5.32812C131.093 5.10547 131.152 4.91504 131.246 4.75684C131.339 4.59277 131.474 4.46094 131.65 4.36133C131.826 4.25586 132.022 4.20312 132.239 4.20312C132.544 4.20312 132.819 4.31738 133.065 4.5459C133.229 4.69824 133.332 4.88574 133.373 5.1084C133.42 5.3252 133.443 5.63574 133.443 6.04004V7.6748H134.322C134.662 7.6748 134.92 7.75684 135.095 7.9209C135.277 8.0791 135.368 8.28418 135.368 8.53613C135.368 8.8584 135.239 9.08398 134.981 9.21289C134.729 9.3418 134.366 9.40625 133.891 9.40625H133.443V13.8184C133.443 14.1934 133.455 14.4834 133.478 14.6885C133.507 14.8877 133.578 15.0518 133.689 15.1807C133.806 15.3037 133.994 15.3652 134.252 15.3652C134.392 15.3652 134.583 15.3418 134.823 15.2949C135.063 15.2422 135.251 15.2158 135.385 15.2158C135.579 15.2158 135.752 15.2949 135.904 15.4531C136.062 15.6055 136.141 15.7959 136.141 16.0244C136.141 16.4111 135.93 16.707 135.508 16.9121C135.087 17.1172 134.48 17.2197 133.689 17.2197C132.939 17.2197 132.371 17.0938 131.984 16.8418C131.597 16.5898 131.342 16.2412 131.219 15.7959C131.102 15.3506 131.044 14.7559 131.044 14.0117V9.40625H130.727C130.381 9.40625 130.118 9.32422 129.936 9.16016C129.755 8.99609 129.664 8.78809 129.664 8.53613C129.664 8.28418 129.757 8.0791 129.945 7.9209C130.138 7.75684 130.417 7.6748 130.78 7.6748ZM145.487 15.0576L143.421 6.84863V15.7432C143.421 16.2354 143.31 16.6045 143.087 16.8506C142.87 17.0967 142.58 17.2197 142.217 17.2197C141.865 17.2197 141.578 17.0996 141.356 16.8594C141.133 16.6133 141.022 16.2412 141.022 15.7432V5.54785C141.022 4.98535 141.168 4.60742 141.461 4.41406C141.754 4.21484 142.15 4.11523 142.648 4.11523H143.456C143.943 4.11523 144.294 4.15918 144.511 4.24707C144.734 4.33496 144.898 4.49316 145.003 4.72168C145.109 4.9502 145.229 5.32227 145.363 5.83789L147.236 12.8955L149.108 5.83789C149.242 5.32227 149.363 4.9502 149.468 4.72168C149.573 4.49316 149.735 4.33496 149.951 4.24707C150.174 4.15918 150.529 4.11523 151.015 4.11523H151.823C152.321 4.11523 152.717 4.21484 153.01 4.41406C153.303 4.60742 153.449 4.98535 153.449 5.54785V15.7432C153.449 16.2354 153.338 16.6045 153.115 16.8506C152.899 17.0967 152.606 17.2197 152.237 17.2197C151.891 17.2197 151.607 17.0967 151.384 16.8506C151.161 16.6045 151.05 16.2354 151.05 15.7432V6.84863L148.985 15.0576C148.85 15.5908 148.738 15.9834 148.651 16.2354C148.569 16.4814 148.413 16.707 148.185 16.9121C147.956 17.1172 147.64 17.2197 147.236 17.2197C146.931 17.2197 146.673 17.1523 146.462 17.0176C146.251 16.8887 146.087 16.7217 145.97 16.5166C145.853 16.3115 145.759 16.0859 145.689 15.8398C145.624 15.5879 145.557 15.3271 145.487 15.0576ZM162.38 12.9307H157.687C157.693 13.4756 157.801 13.9561 158.012 14.3721C158.229 14.7881 158.513 15.1016 158.865 15.3125C159.222 15.5234 159.615 15.6289 160.042 15.6289C160.33 15.6289 160.59 15.5967 160.825 15.5322C161.065 15.4619 161.296 15.3564 161.519 15.2158C161.742 15.0693 161.947 14.9141 162.134 14.75C162.322 14.5859 162.565 14.3633 162.864 14.082C162.987 13.9766 163.163 13.9238 163.391 13.9238C163.637 13.9238 163.836 13.9912 163.989 14.126C164.141 14.2607 164.217 14.4512 164.217 14.6973C164.217 14.9141 164.132 15.1689 163.962 15.4619C163.792 15.749 163.535 16.0273 163.189 16.2969C162.849 16.5605 162.418 16.7803 161.897 16.9561C161.381 17.1318 160.787 17.2197 160.113 17.2197C158.572 17.2197 157.374 16.7803 156.518 15.9014C155.663 15.0225 155.235 13.8301 155.235 12.3242C155.235 11.6152 155.34 10.959 155.551 10.3555C155.762 9.74609 156.07 9.22461 156.474 8.79102C156.878 8.35742 157.376 8.02637 157.968 7.79785C158.56 7.56348 159.216 7.44629 159.937 7.44629C160.874 7.44629 161.677 7.64551 162.345 8.04395C163.019 8.43652 163.523 8.94629 163.857 9.57324C164.191 10.2002 164.358 10.8389 164.358 11.4893C164.358 12.0928 164.185 12.4854 163.839 12.667C163.494 12.8428 163.007 12.9307 162.38 12.9307ZM157.687 11.5684H162.038C161.979 10.748 161.756 10.1357 161.37 9.73145C160.989 9.32129 160.485 9.11621 159.858 9.11621C159.26 9.11621 158.768 9.32422 158.381 9.74023C158 10.1504 157.769 10.7598 157.687 11.5684ZM174.089 12.5176V15.708C174.089 16.2119 173.974 16.5898 173.746 16.8418C173.517 17.0938 173.216 17.2197 172.841 17.2197C172.477 17.2197 172.181 17.0938 171.953 16.8418C171.73 16.5898 171.619 16.2119 171.619 15.708V11.8848C171.619 11.2812 171.598 10.8125 171.557 10.4785C171.516 10.1445 171.405 9.87207 171.223 9.66113C171.042 9.44434 170.755 9.33594 170.362 9.33594C169.577 9.33594 169.058 9.60547 168.806 10.1445C168.56 10.6836 168.437 11.457 168.437 12.4648V15.708C168.437 16.2061 168.323 16.584 168.094 16.8418C167.872 17.0938 167.576 17.2197 167.207 17.2197C166.844 17.2197 166.545 17.0938 166.31 16.8418C166.082 16.584 165.968 16.2061 165.968 15.708V8.84375C165.968 8.39258 166.07 8.0498 166.275 7.81543C166.486 7.58105 166.761 7.46387 167.101 7.46387C167.429 7.46387 167.702 7.5752 167.919 7.79785C168.141 8.01465 168.253 8.31641 168.253 8.70312V8.93164C168.669 8.43359 169.114 8.06738 169.589 7.83301C170.063 7.59863 170.591 7.48145 171.171 7.48145C171.774 7.48145 172.293 7.60156 172.726 7.8418C173.16 8.08203 173.517 8.44531 173.799 8.93164C174.203 8.43945 174.636 8.07617 175.099 7.8418C175.562 7.60156 176.075 7.48145 176.637 7.48145C177.294 7.48145 177.859 7.61035 178.334 7.86816C178.808 8.12598 179.163 8.49512 179.397 8.97559C179.602 9.40918 179.705 10.0918 179.705 11.0234V15.708C179.705 16.2119 179.591 16.5898 179.362 16.8418C179.134 17.0938 178.832 17.2197 178.457 17.2197C178.094 17.2197 177.795 17.0938 177.56 16.8418C177.332 16.584 177.218 16.2061 177.218 15.708V11.6738C177.218 11.1582 177.194 10.7451 177.147 10.4346C177.106 10.124 176.989 9.86328 176.796 9.65234C176.602 9.44141 176.309 9.33594 175.917 9.33594C175.6 9.33594 175.299 9.42969 175.011 9.61719C174.73 9.80469 174.511 10.0566 174.352 10.373C174.177 10.7773 174.089 11.4922 174.089 12.5176ZM183.969 5.2666V8.93164C184.42 8.46289 184.88 8.10547 185.349 7.85938C185.817 7.60742 186.398 7.48145 187.089 7.48145C187.886 7.48145 188.583 7.67188 189.181 8.05273C189.784 8.42773 190.25 8.97559 190.578 9.69629C190.912 10.4111 191.079 11.2607 191.079 12.2451C191.079 12.9717 190.985 13.6396 190.798 14.249C190.616 14.8525 190.35 15.377 189.998 15.8223C189.647 16.2676 189.219 16.6133 188.715 16.8594C188.217 17.0996 187.666 17.2197 187.063 17.2197C186.693 17.2197 186.345 17.1758 186.017 17.0879C185.694 17 185.419 16.8857 185.19 16.7451C184.962 16.5986 184.766 16.4492 184.602 16.2969C184.443 16.1445 184.232 15.916 183.969 15.6113V15.8486C183.969 16.2998 183.86 16.6426 183.644 16.877C183.427 17.1055 183.151 17.2197 182.817 17.2197C182.478 17.2197 182.205 17.1055 182 16.877C181.801 16.6426 181.701 16.2998 181.701 15.8486V5.37207C181.701 4.88574 181.798 4.51953 181.991 4.27344C182.19 4.02148 182.466 3.89551 182.817 3.89551C183.187 3.89551 183.471 4.01563 183.67 4.25586C183.869 4.49023 183.969 4.82715 183.969 5.2666ZM184.083 12.3945C184.083 13.3496 184.3 14.085 184.733 14.6006C185.173 15.1104 185.747 15.3652 186.456 15.3652C187.06 15.3652 187.578 15.1045 188.012 14.583C188.451 14.0557 188.671 13.3027 188.671 12.3242C188.671 11.6914 188.58 11.1465 188.398 10.6895C188.217 10.2324 187.959 9.88086 187.625 9.63477C187.291 9.38281 186.901 9.25684 186.456 9.25684C185.999 9.25684 185.592 9.38281 185.234 9.63477C184.877 9.88086 184.596 10.2412 184.391 10.7158C184.186 11.1846 184.083 11.7441 184.083 12.3945ZM199.421 12.9307H194.728C194.734 13.4756 194.842 13.9561 195.053 14.3721C195.27 14.7881 195.554 15.1016 195.906 15.3125C196.263 15.5234 196.656 15.6289 197.083 15.6289C197.37 15.6289 197.631 15.5967 197.866 15.5322C198.106 15.4619 198.337 15.3564 198.56 15.2158C198.783 15.0693 198.988 14.9141 199.175 14.75C199.363 14.5859 199.606 14.3633 199.905 14.082C200.028 13.9766 200.203 13.9238 200.432 13.9238C200.678 13.9238 200.877 13.9912 201.03 14.126C201.182 14.2607 201.258 14.4512 201.258 14.6973C201.258 14.9141 201.173 15.1689 201.003 15.4619C200.833 15.749 200.576 16.0273 200.23 16.2969C199.89 16.5605 199.459 16.7803 198.938 16.9561C198.422 17.1318 197.827 17.2197 197.154 17.2197C195.613 17.2197 194.414 16.7803 193.559 15.9014C192.703 15.0225 192.276 13.8301 192.276 12.3242C192.276 11.6152 192.381 10.959 192.592 10.3555C192.803 9.74609 193.111 9.22461 193.515 8.79102C193.919 8.35742 194.417 8.02637 195.009 7.79785C195.601 7.56348 196.257 7.44629 196.978 7.44629C197.915 7.44629 198.718 7.64551 199.386 8.04395C200.06 8.43652 200.564 8.94629 200.898 9.57324C201.232 10.2002 201.399 10.8389 201.399 11.4893C201.399 12.0928 201.226 12.4854 200.88 12.667C200.534 12.8428 200.048 12.9307 199.421 12.9307ZM194.728 11.5684H199.078C199.02 10.748 198.797 10.1357 198.41 9.73145C198.03 9.32129 197.526 9.11621 196.899 9.11621C196.301 9.11621 195.809 9.32422 195.422 9.74023C195.041 10.1504 194.81 10.7598 194.728 11.5684ZM205.531 13.7568V15.7607C205.531 16.2471 205.417 16.6133 205.188 16.8594C204.96 17.0996 204.67 17.2197 204.318 17.2197C203.972 17.2197 203.688 17.0967 203.465 16.8506C203.243 16.6045 203.131 16.2412 203.131 15.7607V9.08105C203.131 8.00293 203.521 7.46387 204.3 7.46387C204.699 7.46387 204.986 7.58984 205.162 7.8418C205.337 8.09375 205.434 8.46582 205.452 8.95801C205.739 8.46582 206.032 8.09375 206.331 7.8418C206.635 7.58984 207.04 7.46387 207.544 7.46387C208.047 7.46387 208.537 7.58984 209.011 7.8418C209.486 8.09375 209.723 8.42773 209.723 8.84375C209.723 9.13672 209.621 9.37988 209.416 9.57324C209.216 9.76074 209 9.85449 208.765 9.85449C208.677 9.85449 208.463 9.80176 208.124 9.69629C207.79 9.58496 207.494 9.5293 207.236 9.5293C206.884 9.5293 206.597 9.62305 206.375 9.81055C206.152 9.99219 205.979 10.2646 205.856 10.6279C205.733 10.9912 205.648 11.4248 205.601 11.9287C205.554 12.4268 205.531 13.0361 205.531 13.7568Z" fill="#E2E2E2"/>
</svg>
